<svg xmlns="http://www.w3.org/2000/svg" xmlns:xlink="http://www.w3.org/1999/xlink" width="225" height="225" viewBox="0 0 225 225">
    <defs>
        <path id="a" d="M.086.215h33.348v38.883H.086z"/>
        <path id="c" d="M0 .176h33.312v38.936H0z"/>
    </defs>
    <g fill="none" fill-rule="evenodd">
        <circle cx="112.5" cy="112.5" r="112.5" fill="#000"/>
        <path fill="#00E164" d="M101.315 110.649v-4.345c1.956.009 5.345.034 7.38.034 1.422 0 1.998.343 1.998 1.53v1.375c0 1.158-1.027 1.406-1.985 1.406h-7.393zm14.753 8.079c1.61-.443 5.353-2.528 5.353-8.078v-4.731c0-4.62-2.674-8.54-10.005-8.747-6.469-.182-14.139-.397-20.16-.57a.538.538 0 0 0-.554.539v31.439a.54.54 0 0 0 .557.538c3.653-.123 6.263-.214 10.056-.283v-8.445c2.12-.018 3.947-.104 4.105-.105 2.12 3.231 3.183 5.214 5.178 8.418 4.537-.007 7.392-.162 11.93-.091l-6.46-9.884z"/>
        <g transform="translate(169.355 93.244)">
            <mask id="b" fill="#fff">
                <use xlink:href="#a"/>
            </mask>
            <path fill="#00E164" d="M10.846 28.499v-2.172l-10.76-.232v5.843c0 3.051 2.502 5.58 5.547 5.78l20.371 1.364a6.972 6.972 0 0 0 7.43-6.956V20.87c0-2.764-1.536-4.595-4.062-4.787l-16.577-1.085c-1.25-.049-1.683-.51-1.683-1.07v-2.864c0-.457.364-.833.821-.847l8.469-.265a.848.848 0 0 1 .874.847v2.278l12.158-.16v-5.73A6.972 6.972 0 0 0 26.004.23L5.635 1.593c-3.045.2-5.548 2.729-5.548 5.78v11.369c0 2.727 1.507 4.192 3.271 4.35l16.33 1.561c1.296.087 1.761.581 1.761 1.162v2.994c0 .48-.398.864-.877.847l-8.908-.31a.847.847 0 0 1-.817-.847" mask="url(#b)"/>
        </g>
        <g transform="translate(23 93.244)">
            <mask id="d" fill="#fff">
                <use xlink:href="#c"/>
            </mask>
            <path fill="#00E164" d="M11.699 28.832v-2.235L0 26.601v5.54a6.97 6.97 0 0 0 7.415 6.957l20.471-1.317a5.794 5.794 0 0 0 5.426-5.782V20.754c0-2.437-.816-4.043-3.87-4.372L12.89 14.85c-.61-.072-1.074-.567-1.074-1.148v-2.942c0-.478.397-.863.875-.847l8.49.273c.458.015.82.39.82.847v2.24l11.31.213V7.275a5.794 5.794 0 0 0-5.429-5.782L7.41.19C3.395-.063 0 3.125 0 7.284V18.78c0 2.773 1.812 4.548 3.813 4.663l16.524 1.117c1.39.033 1.826.497 1.826 1.06v2.937a.847.847 0 0 1-.82.847l-8.77.275a.847.847 0 0 1-.874-.847" mask="url(#d)"/>
        </g>
        <path fill="#00E164" d="M59.583 96.188v33.384c0 .308.257.554.565.537 8.427-.443 18.755-.695 27.281-.964v-8.922c-5.184.083-11.677.202-16.8.352v-3.393c5.059-.07 9.313-.1 14.63-.146v-8.216c-5.317-.045-9.571-.075-14.63-.142v-3.49c5.123.15 11.616.267 16.8.35v-8.942c-8.527-.269-18.84-.535-27.283-.945a.536.536 0 0 0-.563.537M135.137 96.838c-3.694.124-7.065.037-10.826.111v31.753c3.761.074 7.131.154 10.826.281a.54.54 0 0 0 .558-.538V97.376a.54.54 0 0 0-.558-.538M166.01 95.652c-8.364.423-18.48.733-27.043 1.004v32.49c8.561.27 18.713.482 27.04.96a.536.536 0 0 0 .567-.538v-8.65c-5.032-.183-11.608-.334-16.71-.452v-3.22c5.024.054 9.42.091 14.609.173v-8.976c-5.19.08-9.585.116-14.608.17v-3.317c5.101-.119 11.677-.27 16.71-.453V96.19a.537.537 0 0 0-.565-.537"/>
    </g>
</svg>
