<svg xmlns="http://www.w3.org/2000/svg" xmlns:xlink="http://www.w3.org/1999/xlink" width="225" height="225" viewBox="0 0 225 225">
    <defs>
        <path id="a" d="M0 .149h26.904v31.446H0z"/>
        <path id="c" d="M.295.007h27.41v16.336H.295z"/>
    </defs>
    <g fill="none" fill-rule="evenodd">
        <circle cx="112.5" cy="112.5" r="112.5" fill="#F7F7FB"/>
        <path fill="#000" d="M90.251 111.32v-3.51c1.58.007 4.317.028 5.96.028 1.149 0 1.614.277 1.614 1.236v1.11c0 .935-.829 1.135-1.603 1.135h-5.97zm11.915 6.525c1.3-.358 4.323-2.042 4.323-6.525V107.5c0-3.732-2.159-6.897-8.08-7.064-5.225-.147-11.419-.32-16.283-.46a.435.435 0 0 0-.447.434v25.392c0 .246.204.443.45.434 2.951-.098 5.06-.172 8.122-.228v-6.82c1.712-.015 3.187-.085 3.315-.085 1.713 2.61 2.571 4.211 4.182 6.798 3.665-.005 5.97-.13 9.635-.073l-5.217-7.982zM153.963 120.28v-1.754l-8.69-.187v4.718c0 2.465 2.022 4.508 4.48 4.67l16.453 1.1a5.63 5.63 0 0 0 6.001-5.618v-9.09c0-2.233-1.241-3.712-3.281-3.867l-13.388-.876c-1.01-.04-1.36-.412-1.36-.864v-2.313c0-.37.294-.673.663-.684l6.84-.214a.684.684 0 0 1 .706.684v1.84l9.82-.13v-4.627a5.63 5.63 0 0 0-6-5.62l-16.453 1.101c-2.46.162-4.48 2.204-4.48 4.67v9.18c0 2.204 1.217 3.386 2.64 3.513l13.19 1.262c1.047.07 1.423.47 1.423.938v2.419a.685.685 0 0 1-.709.684l-7.194-.251a.684.684 0 0 1-.66-.684"/>
        <g transform="translate(27 97.257)">
            <mask id="b" fill="#fff">
                <use xlink:href="#a"/>
            </mask>
            <path fill="#000" d="M9.448 23.292v-1.805L0 21.49v4.474a5.63 5.63 0 0 0 5.989 5.62l16.533-1.065a4.679 4.679 0 0 0 4.382-4.67v-9.08c0-1.97-.658-3.266-3.126-3.532L10.41 12c-.492-.057-.867-.457-.867-.926V8.697c0-.386.32-.696.707-.684l6.857.22a.685.685 0 0 1 .663.685v1.81l9.134.17V5.883a4.68 4.68 0 0 0-4.385-4.67L5.985.16C2.742-.045 0 2.53 0 5.888v9.286c0 2.24 1.463 3.673 3.079 3.766l13.346.901c1.123.028 1.475.403 1.475.857v2.372c0 .37-.294.673-.663.685l-7.083.221a.684.684 0 0 1-.706-.684" mask="url(#b)"/>
        </g>
        <path fill="#000" d="M56.547 99.64v26.963c0 .249.207.447.456.434 6.806-.358 15.147-.562 22.033-.779v-7.206c-4.187.067-9.431.163-13.57.284v-2.74c4.087-.056 7.523-.08 11.817-.118v-6.636c-4.294-.036-7.73-.06-11.816-.114v-2.82c4.138.121 9.382.217 13.57.285V99.97c-6.888-.217-15.218-.432-22.036-.764a.433.433 0 0 0-.454.434M117.568 100.165c-2.984.1-5.706.03-8.744.09V125.9c3.038.06 5.76.125 8.743.227a.436.436 0 0 0 .451-.434V100.6a.436.436 0 0 0-.45-.435M142.503 99.207c-6.756.342-14.927.592-21.842.81v26.241c6.914.219 15.114.39 21.838.776a.434.434 0 0 0 .459-.434v-6.987c-4.064-.148-9.376-.27-13.496-.365v-2.601c4.057.044 7.608.074 11.799.14v-7.249c-4.191.065-7.742.094-11.799.137v-2.679c4.12-.096 9.432-.218 13.496-.365v-6.99a.434.434 0 0 0-.455-.434"/>
        <path fill="#00E164" d="M185.09 111.594c-.887 0-1.51.7-1.51 1.526 0 .841.623 1.558 1.51 1.558.888 0 1.496-.717 1.496-1.558 0-.826-.608-1.526-1.496-1.526"/>
        <g transform="translate(175.658 104.953)">
            <mask id="d" fill="#fff">
                <use xlink:href="#c"/>
            </mask>
            <path fill="#00E164" d="M22.793 11.644a.59.59 0 0 1-.59.589h-1.73a.59.59 0 0 1-.59-.59V8.226c0-.9-.479-1.23-1.034-1.23s-1.034.33-1.034 1.23v3.419a.59.59 0 0 1-.59.589h-1.73a.59.59 0 0 1-.59-.59V7.825c0-2.47 2.16-3.706 3.944-3.706 1.785 0 3.944 1.237 3.944 3.706v3.82zm-13.361.589c-2.508 0-4.237-1.776-4.237-4.081 0-2.29 1.729-4.034 4.237-4.034s4.252 1.744 4.252 4.034c0 2.305-1.744 4.081-4.252 4.081zM27.58 5.604C27.342 2.893 25.777.978 23.023.532 20.723.16 18.354.007 14 .007S7.276.16 4.977.532C2.223.978.657 2.892.42 5.604L.317 7.407a13.31 13.31 0 0 0 0 1.536l.103 1.803c.238 2.712 1.803 4.627 4.557 5.073 2.3.372 4.669.524 9.023.524s6.724-.152 9.023-.524c2.754-.446 4.32-2.361 4.557-5.073l.103-1.803c.03-.511.03-1.024 0-1.536l-.103-1.803z" mask="url(#d)"/>
        </g>
    </g>
</svg>
