<svg xmlns="http://www.w3.org/2000/svg" xmlns:xlink="http://www.w3.org/1999/xlink" width="225" height="225" viewBox="0 0 225 225">
    <defs>
        <path id="a" d="M0 .094h87.511v108.314H.001z"/>
    </defs>
    <g fill="none" fill-rule="evenodd">
        <circle cx="112.5" cy="112.5" r="112.5" fill="#4579EC"/>
        <path fill="#AFD2FF" d="M156.597 58.779s-.058-.079-.086-.1l-43.558 54.39.005.004a8.88 8.88 0 0 1 1.404 12.51c-3.079 3.839-8.698 4.466-12.552 1.401l-20.468 25.557h59.335c.968 0 2.141-.398 2.417-2.212l13.592-91.21a.447.447 0 0 0-.09-.34"/>
        <g transform="translate(69 58.498)">
            <mask id="b" fill="#fff">
                <use xlink:href="#a"/>
            </mask>
            <path fill="#FFF" d="M87.477.16a.457.457 0 0 0-.234-.066c-.09 0-.263.084-.263.084L1.437 37.591C.21 38.184 0 39.145 0 40.06v67.29c0 1.36.68 1.222 1.192.615l11.15-13.923L32.81 68.486l-.004-.003a8.878 8.878 0 0 1-1.405-12.51c3.079-3.839 8.697-4.466 12.552-1.402L87.511.181a.336.336 0 0 0-.034-.022" mask="url(#b)"/>
        </g>
    </g>
</svg>
