<svg xmlns="http://www.w3.org/2000/svg" width="225" height="225" viewBox="0 0 225 225">
    <g fill="none" fill-rule="evenodd">
        <circle cx="112.5" cy="112.5" r="112.5" fill="#00D564"/>
        <path fill="#FFF" d="M155.899 133.605a.468.468 0 0 1-.433.423l-4.14.127a.487.487 0 0 1-.44-.198l-5.454-7.871c-.11-.149-.353-.075-.35.106l-.014 7.922a.466.466 0 0 1-.444.464l-4.88.225a.477.477 0 0 1-.516-.457l.201-17.912a.464.464 0 0 1 .475-.461l4.358.168a.484.484 0 0 1 .405.208l5.978 9.019c.104.153.346.09.354-.091l.095-8.641a.467.467 0 0 1 .476-.439l4.53.047c.282 0 .505.229.485.498l-.686 16.863zm-18.82-21.672c-3.37-.085-6.471-.172-9.84-.264-.345-.01-.621-.26-.62-.563.048-7.013.09-14.022.137-21.033.001-.307.281-.568.624-.588 3.17-.196 7.23-.48 10.402-.663 3.895-.257 8.056.908 8.083 6.097.01 1.952-.95 3.892-2.607 5.118a.197.197 0 0 0-.083.168c.001.07.036.137.1.165 2.012.872 3.158 2.384 3.012 5.241-.276 5.466-4.85 6.37-9.207 6.322zm-9.288 24.299c-5.829.236-10.523-4.184-10.523-10.185 0-6.264 3.85-10.521 10.278-10.521 5.693 0 10.116 4.147 10.116 10.206 0 6.076-4.335 10.277-9.871 10.5zm-17.983-25.069a.556.556 0 0 1-.54-.558c.054-6.455.107-12.908.164-19.364a.592.592 0 0 1 .549-.577c4.728-.323 9.457-.63 14.186-.932.334-.02.605.204.604.511l-.03 4.19c-.002.346-.276.643-.61.659-3.705.177-5.5.266-8.976.44-.08.004-.147.079-.149.164l-.017 2.145c0 .09.065.16.147.157 3.005-.11 4.632-.164 7.808-.277.332-.01.601.273.598.633l-.028 4.354c-.003.36-.277.653-.609.653l-7.81.022c-.081 0-.15.073-.15.161l-.018 2.39a.155.155 0 0 0 .146.16c3.478.04 5.275.065 8.983.107a.625.625 0 0 1 .602.639l-.027 4.192c-.003.306-.278.54-.613.53-4.737-.13-9.473-.265-14.21-.399zm-5.008 26.414c-6.717.213-11.676-4.148-11.676-11.21 0-6.612 4.296-11.45 11.573-11.45 6.178 0 11.048 4.869 11.048 11.15 0 6.809-4.742 11.311-10.945 11.51zm-12.084-17.046a.475.475 0 0 1-.475.445l-5.655-.062a.19.19 0 0 0-.19.19l.102 16.335a.475.475 0 0 1-.44.473l-5.75.399a.477.477 0 0 1-.521-.472l.066-16.796a.191.191 0 0 0-.191-.19l-6.158-.133a.474.474 0 0 1-.475-.44l-.217-5.36a.478.478 0 0 1 .495-.502l19.083.514c.268.008.479.23.464.496l-.138 5.103zM81.374 92.637c1.397-.091 3.03-.166 4.487-.271.2-.015.374.138.422.374.712 3.473 1.47 6.525 2.222 9.988.02.094.088.753.112.758.022 0 .092-.666.114-.758.876-3.587 1.736-6.764 2.59-10.36.057-.239.243-.416.455-.43 1.682-.12 2.709-.182 4.465-.306.22-.018.413.134.468.364.877 3.691 1.743 6.974 2.602 10.667.023.101.101.767.126.767.024 0 .103-.669.127-.77.905-3.821 1.812-7.23 2.737-11.05a.575.575 0 0 1 .505-.441c1.694-.118 2.889-.177 4.646-.297a.488.488 0 0 1 .427.184c.102.13.133.302.084.472-1.753 6.335-3.416 12.694-5.18 19.027a.508.508 0 0 1-.5.376c-2.075-.059-3.422-.085-5.4-.141-.217-.006-.409-.172-.467-.405-.782-3.173-1.64-5.936-2.423-9.109-.023-.092-.097-.542-.118-.542-.022.002-.095.456-.12.548-.817 3.126-1.723 5.837-2.527 8.966-.058.228-.244.383-.448.38-1.86-.052-3.521-.059-5.287-.105-.195-.004-.366-.171-.418-.4-1.277-5.6-2.818-11.172-4.109-16.769-.114-.494.147-.699.408-.717zm73.374 14.487l3.94-45.624-92.74 14.432 7.855 29.537H56.712l17.528 53.825 41.009-6.088v16.012l47.534-21.802 6.796-40.292h-14.83zm-21.773-9.5c1.36-.043 2.066-.066 3.453-.107 1.563-.05 2.348-.704 2.348-1.869 0-.863-.245-1.721-2.312-1.626-1.394.065-2.105.095-3.469.159a.18.18 0 0 0-.168.178l-.019 3.093c0 .096.075.176.167.173zm-28.278 23.347c-2.851-.03-4.858 1.927-4.854 5.32.005 3.39 2.065 5.433 4.93 5.322 2.862-.108 4.797-2.22 4.778-5.46-.017-3.239-2.002-5.15-4.854-5.182zm22.933.11c-2.644 0-4.42 1.862-4.387 4.876.03 3.015 1.898 4.914 4.482 4.801 2.583-.112 4.29-2.074 4.291-4.935 0-2.942-1.659-4.743-4.386-4.743zm9.155-17.864c-1.546.003-2.332.024-3.843.029-.094 0-.169.08-.169.178l-.018 3.17a.17.17 0 0 0 .165.172l3.847.065c2.188.026 2.468-.993 2.468-1.769.001-1.31-.806-1.85-2.45-1.845z"/>
    </g>
</svg>
